<svg width="122" height="75" viewBox="0 0 122 75" fill="none" xmlns="http://www.w3.org/2000/svg">
<path fill-rule="evenodd" clip-rule="evenodd" d="M122 37.5C122 58.2107 94.6894 75 61 75L60.8257 74.9998C71.1462 74.959 79.5 66.5801 79.5 56.25C79.5 45.8947 71.1053 37.5 60.75 37.5C71.1053 37.5 79.5 29.1053 79.5 18.75C79.5 8.41992 71.1462 0.0409662 60.8257 0.000149758C60.8838 4.99414e-05 60.9419 0 61 0C94.6894 0 122 16.7893 122 37.5ZM60.5578 0.000964725C50.291 0.104071 42 8.4588 42 18.75C42 29.1053 50.3947 37.5 60.75 37.5C50.3947 37.5 42 45.8947 42 56.25C42 66.5412 50.291 74.8959 60.5578 74.999C27.072 74.8529 0 58.12 0 37.5C0 16.88 27.072 0.147114 60.5578 0.000964725Z" fill="#FFCFFD"/>
</svg>
